<?xml version="1.0" encoding="UTF-8"?>
<svg id="Layer_1" data-name="Layer 1" xmlns="http://www.w3.org/2000/svg" viewBox="0 0 699.9 812.75">
  <defs>
    <style>
      .cls-1 {
        fill: #80a4c6;
      }
    </style>
  </defs>
  <path class="cls-1" d="M573.02,184.43c-52.44-79.19-163.13-131.6-257.2-118.46-94.07,13.14-201.69,104.35-217.01,199.56-5.51,34.26-6.19,69.45,1.24,104.1,3.07,14.31,11.42,39.34,20.48,50.84,10.57,13.42,28.39,17.89,43.28,11.86,19.08-7.73,24.51-33.8,42.18-44.37,28.24-16.91,44.62,1.73,57.34,25.8,12.47,23.59,14.59,51.39,25.59,75.7,23.21,51.29,85.25,78.42,140.89,69.81,55.63-8.6,103.39-47.74,132.33-96.03,48.82-81.47,63.33-199.61,10.89-278.81ZM158.65,352.71c-17.28-1.42-30.15-16.41-28.75-33.48,1.39-16.9,16.66-30.78,33.83-28.35,18.05,2.56,26.82,13.99,28.87,32.01,1.94,17.02-16.67,31.23-33.95,29.82Z"/>
  <g>
    <g>
      <path class="cls-1" d="M153.48,740.86v-51.18c0-1-.81-1.81-1.81-1.81h-13.84c-1,0-1.81-.81-1.81-1.81v-8.4c0-1,.81-1.81,1.81-1.81h45.64c1,0,1.81.81,1.81,1.81v8.4c0,1-.81,1.81-1.81,1.81h-14.23c-1,0-1.81.81-1.81,1.81v51.18c0,1-.81,1.81-1.81,1.81h-10.31c-1,0-1.81-.81-1.81-1.81Z"/>
      <path class="cls-1" d="M195.11,740.86v-63.21c0-1,.81-1.81,1.81-1.81h9.74c1,0,1.81.81,1.81,1.81v23.97c.51-1.15,1.21-2.24,2.1-3.29.89-1.05,1.92-1.97,3.1-2.77,1.18-.8,2.5-1.42,3.96-1.86,1.46-.44,2.99-.67,4.58-.67,4.26,0,7.75.83,10.45,2.48,2.7,1.66,4.69,3.96,5.97,6.92,1.27,2.96,1.91,6.35,1.91,10.17v28.26c0,1-.81,1.81-1.81,1.81h-9.74c-1,0-1.81-.81-1.81-1.81v-26.45c0-3.56-.67-6.24-2-8.02-1.34-1.78-3.38-2.67-6.11-2.67s-4.69.62-6.25,1.86c-1.56,1.24-2.67,3.07-3.34,5.49-.67,2.42-1,5.35-1,8.78v21.01c0,1-.81,1.81-1.81,1.81h-9.74c-1,0-1.81-.81-1.81-1.81Z"/>
      <path class="cls-1" d="M267.58,743.82c-4.33,0-8.02-1.02-11.07-3.05-3.06-2.04-5.38-4.95-6.97-8.74-1.59-3.79-2.39-8.29-2.39-13.51s.87-9.91,2.63-13.7c1.75-3.79,4.2-6.7,7.35-8.74,3.15-2.04,6.79-3.06,10.93-3.06,2.67,0,5,.48,6.97,1.43,1.97.96,3.63,2.18,4.96,3.68.02.02.03.04.05.05,1.12,1.26,3.2.52,3.2-1.17v-1.03c0-1,.81-1.81,1.81-1.81h9.74c1,0,1.82.81,1.81,1.82l-.09,44.88c0,1-.81,1.81-1.81,1.81h-9.65c-1,0-1.81-.81-1.81-1.81v-.41c0-1.65-1.98-2.41-3.13-1.24-.05.05-.11.11-.16.16-1.37,1.37-3.06,2.45-5.06,3.25-2.01.8-4.44,1.19-7.3,1.19ZM272.35,733.51c2.16-.06,4.06-.7,5.68-1.91,1.62-1.21,2.89-2.94,3.82-5.2.92-2.26,1.38-4.88,1.38-7.88,0-2.8-.46-5.33-1.38-7.59-.92-2.26-2.2-4.06-3.82-5.39-1.62-1.34-3.52-2.01-5.68-2.01-2.29,0-4.28.67-5.97,2.01-1.69,1.34-2.99,3.14-3.91,5.39-.92,2.26-1.39,4.79-1.39,7.59,0,3.06.46,5.71,1.39,7.97.92,2.26,2.23,4,3.91,5.2,1.69,1.21,3.68,1.81,5.97,1.81Z"/>
      <path class="cls-1" d="M328.87,743.82c-6.24,0-10.77-1.29-13.61-3.87-2.83-2.58-4.25-6.41-4.25-11.5v-20.91c0-1-.81-1.81-1.81-1.81h-5.54c-1,0-1.81-.81-1.81-1.81v-7.92c0-1,.81-1.81,1.81-1.81h0c2.04,0,3.63-.22,4.77-.67,1.15-.44,1.96-1.19,2.43-2.24s.72-2.43.72-4.15v-2.48c0-1,.81-1.81,1.81-1.81h9.17c1,0,1.81.81,1.81,1.81v7.83c0,1,.81,1.81,1.81,1.81h7.45c1,0,1.81.81,1.81,1.81v7.83c0,1-.81,1.81-1.81,1.81h-7.45c-1,0-1.81.81-1.81,1.81v17.57c0,2.23.57,3.77,1.72,4.63,1.15.86,2.35,1.29,3.63,1.29.63,0,1.43-.03,2.39-.1.22-.01.43-.03.64-.05,1.05-.09,1.94.74,1.95,1.79l.07,8.94c0,.89-.63,1.65-1.51,1.8-.46.08-.96.15-1.49.21-1.18.13-2.15.19-2.91.19Z"/>
      <path class="cls-1" d="M392.37,743.82c-5.86,0-10.81-.99-14.85-2.96-4.04-1.97-7.3-4.63-9.79-7.97-2.48-3.34-4.28-7.1-5.39-11.27-1.12-4.17-1.67-8.45-1.67-12.84,0-4.65.64-9.02,1.91-13.13,1.27-4.11,3.21-7.73,5.82-10.88,2.61-3.15,5.89-5.63,9.83-7.45,3.95-1.81,8.59-2.72,13.94-2.72,4.14,0,7.99.86,11.55,2.58,3.56,1.72,6.6,4.09,9.12,7.11,2.09,2.51,3.62,5.35,4.59,8.5.32,1.03-.32,2.12-1.38,2.33l-9.96,1.98c-.88.17-1.73-.32-2.05-1.16-.49-1.29-1.2-2.52-2.12-3.68-1.27-1.59-2.77-2.86-4.49-3.82-1.72-.96-3.53-1.43-5.44-1.43-3.82,0-6.96.86-9.41,2.58-2.45,1.72-4.27,4.19-5.44,7.4-1.18,3.22-1.77,7.08-1.77,11.6,0,5.03.62,9.23,1.86,12.6,1.24,3.37,3.12,5.9,5.63,7.59,2.51,1.69,5.68,2.53,9.5,2.53,1.78,0,3.52-.43,5.2-1.29,1.69-.86,3.15-2.05,4.39-3.58.93-1.14,1.63-2.44,2.11-3.9.29-.87,1.17-1.4,2.07-1.22l9.92,1.97c1.06.21,1.69,1.29,1.38,2.33-.92,3.1-2.28,5.92-4.07,8.46-2.17,3.06-5,5.44-8.5,7.16-3.5,1.72-7.67,2.58-12.51,2.58Z"/>
      <path class="cls-1" d="M443.54,743.82c-4.33,0-8.02-1.02-11.07-3.05-3.06-2.04-5.38-4.95-6.97-8.74-1.59-3.79-2.39-8.29-2.39-13.51s.87-9.91,2.63-13.7c1.75-3.79,4.2-6.7,7.35-8.74s6.79-3.06,10.93-3.06c2.67,0,5,.48,6.97,1.43,1.97.96,3.63,2.18,4.96,3.68.02.02.03.04.05.05,1.12,1.26,3.2.52,3.2-1.17v-1.03c0-1,.81-1.81,1.81-1.81h9.74c1,0,1.82.81,1.81,1.82l-.09,44.88c0,1-.81,1.81-1.81,1.81h-9.65c-1,0-1.81-.81-1.81-1.81v-.41c0-1.65-1.98-2.41-3.13-1.24-.05.05-.11.11-.16.16-1.37,1.37-3.06,2.45-5.06,3.25-2.01.8-4.44,1.19-7.3,1.19ZM448.31,733.51c2.16-.06,4.06-.7,5.68-1.91,1.62-1.21,2.89-2.94,3.82-5.2.92-2.26,1.38-4.88,1.38-7.88,0-2.8-.46-5.33-1.38-7.59-.92-2.26-2.2-4.06-3.82-5.39-1.62-1.34-3.52-2.01-5.68-2.01-2.29,0-4.28.67-5.97,2.01-1.69,1.34-2.99,3.14-3.91,5.39-.92,2.26-1.39,4.79-1.39,7.59,0,3.06.46,5.71,1.39,7.97.92,2.26,2.23,4,3.91,5.2,1.69,1.21,3.68,1.81,5.97,1.81Z"/>
      <path class="cls-1" d="M483.74,740.86v-44.88c0-1,.81-1.81,1.81-1.81h9.74c1,0,1.81.81,1.81,1.81v6.21c.51-1.27,1.16-2.47,1.96-3.58.8-1.11,1.77-2.08,2.91-2.91,1.15-.83,2.42-1.48,3.82-1.96,1.4-.48,2.9-.72,4.49-.72.51,0,1.21.03,2.1.1.12,0,.24.02.36.03.94.08,1.65.87,1.65,1.81v8.66c0,1.11-1,1.98-2.09,1.79-.48-.08-.99-.15-1.53-.21-1.46-.16-2.8-.11-4.01.14-2.48.51-4.42,1.46-5.82,2.86-1.4,1.4-2.39,3.22-2.96,5.44-.57,2.23-.86,4.87-.86,7.92v19.29c0,1-.81,1.81-1.81,1.81h-9.74c-1,0-1.81-.81-1.81-1.81Z"/>
      <path class="cls-1" d="M541.31,743.91c-4.27,0-8.32-.99-12.17-2.96-3.85-1.97-6.97-4.87-9.36-8.69-2.39-3.82-3.58-8.5-3.58-14.03,0-4.33.7-8.07,2.1-11.22,1.4-3.15,3.29-5.76,5.68-7.83,2.39-2.07,5.06-3.61,8.02-4.63,2.96-1.02,6-1.53,9.12-1.53,4.77,0,8.93,1.04,12.46,3.1,3.53,2.07,6.27,5.05,8.21,8.93,1.94,3.88,2.91,8.53,2.91,13.94v1.34c0,1-.81,1.81-1.81,1.81h-34.87c-.99,0-1.8-.8-1.81-1.79l-.05-4.58c-.01-1.01.8-1.84,1.81-1.84h20.87c1.26,0,2.15-1.25,1.71-2.44-.05-.14-.11-.28-.17-.43-.45-1.08-1.1-2.12-1.96-3.1-.86-.99-1.91-1.81-3.15-2.48-1.24-.67-2.66-1-4.25-1-2.67,0-4.87.61-6.59,1.81-1.72,1.21-3.01,2.85-3.87,4.92-.86,2.07-1.29,4.41-1.29,7.02,0,2.93.43,5.46,1.29,7.59.86,2.13,2.2,3.77,4.01,4.92,1.81,1.15,4.12,1.72,6.92,1.72.95,0,2.04-.24,3.25-.72,1.21-.48,2.35-1.19,3.44-2.15.73-.65,1.35-1.38,1.84-2.2.43-.71,1.27-1.05,2.07-.82l9.15,2.7c1.09.32,1.62,1.56,1.11,2.57-1.32,2.59-2.94,4.72-4.87,6.38-2.39,2.07-4.98,3.53-7.78,4.39-2.8.86-5.6,1.29-8.4,1.29Z"/>
    </g>
    <g>
      <path class="cls-1" d="M127.86,649.2c-5.25,0-9.76-1.04-13.54-3.13-3.77-2.09-6.87-4.91-9.29-8.48-2.42-3.57-4.21-7.56-5.35-11.97-1.15-4.41-1.72-8.94-1.72-13.58s.59-9.46,1.77-13.84c1.18-4.38,2.98-8.23,5.4-11.57,2.42-3.33,5.52-5.96,9.29-7.88,3.77-1.92,8.25-2.88,13.43-2.88,4.91,0,9.29.91,13.13,2.73,3.84,1.82,7.02,4.33,9.54,7.52,2.53,3.2,4.26,6.88,5.2,11.06l-8.99,1.82c-.74-2.9-2.02-5.47-3.84-7.73-1.82-2.26-4.01-4.04-6.56-5.35-2.56-1.31-5.39-1.97-8.48-1.97-4.38,0-8.13,1.23-11.26,3.69s-5.5,5.79-7.12,10c-1.62,4.21-2.42,8.94-2.42,14.19s.81,10.4,2.42,14.85c1.62,4.44,3.99,7.96,7.12,10.55,3.13,2.59,6.88,3.89,11.26,3.89,3.1,0,5.92-.66,8.48-1.97,2.56-1.31,4.75-3.1,6.56-5.35,1.82-2.26,3.1-4.83,3.84-7.73l8.99,1.82c-.94,4.11-2.68,7.78-5.2,11.01-2.52,3.23-5.71,5.76-9.54,7.57-3.84,1.82-8.22,2.73-13.13,2.73Z"/>
      <path class="cls-1" d="M189.37,654.82c-4.38,0-8.35-.99-11.92-2.98-3.57-1.99-6.41-4.95-8.53-8.89-2.12-3.94-3.18-8.8-3.18-14.6,0-4.38.64-8.2,1.92-11.46,1.28-3.26,3.01-6.03,5.2-8.28,2.19-2.25,4.71-3.94,7.57-5.05s5.84-1.67,8.94-1.67c4.38,0,8.35,1,11.92,2.98,3.57,1.99,6.41,4.95,8.53,8.89,2.12,3.94,3.18,8.8,3.18,14.59,0,4.31-.64,8.12-1.92,11.41-1.28,3.3-3.01,6.08-5.2,8.33-2.19,2.26-4.7,3.94-7.52,5.05-2.83,1.11-5.83,1.67-8.99,1.67ZM189.37,647.14c4.98,0,8.75-1.68,11.31-5.05,2.56-3.37,3.84-7.94,3.84-13.74s-1.28-10.37-3.84-13.74c-2.56-3.37-6.33-5.05-11.31-5.05s-8.58,1.68-11.21,5.05-3.94,7.94-3.94,13.74,1.3,10.37,3.89,13.74c2.59,3.37,6.35,5.05,11.26,5.05Z"/>
      <path class="cls-1" d="M225.93,662.74v-70.7h8.48v70.7h-8.48Z"/>
      <path class="cls-1" d="M248.95,647.08v-70.7h8.48v70.7h-8.48Z"/>
      <path class="cls-1" d="M294.61,658.83c-4.71,0-8.89-1.06-12.52-3.18-3.64-2.12-6.48-5.17-8.53-9.14-2.06-3.97-3.08-8.65-3.08-14.04,0-4.17.59-7.89,1.77-11.16,1.18-3.26,2.83-6.06,4.95-8.38,2.12-2.32,4.65-4.09,7.58-5.3,2.93-1.21,6.11-1.82,9.54-1.82,4.17,0,7.96.89,11.36,2.68,3.4,1.79,6.11,4.55,8.13,8.28,2.02,3.74,3.03,8.53,3.03,14.39v2.73h-38.28v-7.07h29.59c0-1.01-.25-2.27-.76-3.79-.51-1.52-1.3-3-2.37-4.44-1.08-1.45-2.47-2.66-4.19-3.64-1.72-.98-3.75-1.47-6.11-1.47-3.64,0-6.62.76-8.94,2.27s-4.02,3.7-5.1,6.56c-1.08,2.86-1.62,6.35-1.62,10.45,0,3.17.45,6.16,1.36,8.99.91,2.83,2.51,5.1,4.8,6.82,2.29,1.72,5.56,2.58,9.8,2.58,1.95,0,3.82-.37,5.61-1.11,1.78-.74,3.37-1.77,4.75-3.08s2.37-2.88,2.98-4.7l8.28,1.41c-.81,2.76-2.14,5.29-3.99,7.58-1.85,2.29-4.26,4.12-7.22,5.5-2.96,1.38-6.56,2.07-10.81,2.07Z"/>
      <path class="cls-1" d="M371.67,611.21l-7.68,3.03c-1.08-2.56-2.68-4.63-4.8-6.21-2.12-1.58-4.7-2.37-7.73-2.37-5.32,0-9.21,1.75-11.67,5.25-2.46,3.5-3.69,7.98-3.69,13.43s1.24,10.15,3.74,13.69c2.49,3.53,6.36,5.3,11.61,5.3,3.03,0,5.61-.82,7.73-2.47,2.12-1.65,3.72-3.75,4.8-6.31l7.68,3.03c-1.75,4.18-4.24,7.46-7.47,9.85-3.23,2.39-7.41,3.58-12.52,3.58-4.24,0-8.2-.98-11.87-2.93s-6.61-4.88-8.84-8.79c-2.22-3.9-3.33-8.79-3.33-14.64s1.11-10.86,3.33-14.8c2.22-3.94,5.17-6.9,8.84-8.89,3.67-1.99,7.63-2.98,11.87-2.98s8.45,1.16,12.02,3.49c3.57,2.32,6.23,5.57,7.98,9.75Z"/>
      <path class="cls-1" d="M403.18,661.34c-5.52,0-9.43-1.24-11.72-3.74-2.29-2.49-3.43-6.09-3.43-10.81v-29.39h-9.09v-7.78h2.32c1.82,0,3.21-.18,4.19-.56.98-.37,1.65-1.06,2.02-2.07.37-1.01.55-2.49.55-4.44v-5.76h8.49v12.93h13.03v7.68h-13.03v29.39c0,2.69.64,4.58,1.92,5.66,1.28,1.08,3.16,1.62,5.66,1.62.67,0,1.41-.03,2.22-.1.81-.07,1.62-.17,2.42-.3v6.87c-.88.27-1.82.47-2.83.61-1.01.13-1.92.2-2.73.2Z"/>
      <path class="cls-1" d="M426.11,587.49c-1.48,0-2.78-.56-3.89-1.67s-1.67-2.41-1.67-3.89.56-2.86,1.67-3.94c1.11-1.08,2.41-1.62,3.89-1.62s2.84.54,3.89,1.62c1.04,1.08,1.57,2.39,1.57,3.94s-.52,2.78-1.57,3.89c-1.04,1.11-2.34,1.67-3.89,1.67ZM421.86,647.08v-50.5h8.48v50.5h-8.48Z"/>
      <path class="cls-1" d="M468.12,657.43c-4.38,0-8.35-.99-11.92-2.98-3.57-1.99-6.41-4.95-8.53-8.89-2.12-3.94-3.18-8.8-3.18-14.6,0-4.38.64-8.2,1.92-11.46,1.28-3.26,3.01-6.03,5.2-8.28,2.19-2.25,4.71-3.94,7.57-5.05,2.86-1.11,5.84-1.67,8.94-1.67,4.38,0,8.35,1,11.92,2.98,3.57,1.99,6.41,4.95,8.53,8.89,2.12,3.94,3.18,8.8,3.18,14.59,0,4.31-.64,8.12-1.92,11.41-1.28,3.3-3.01,6.08-5.2,8.33-2.19,2.26-4.7,3.94-7.52,5.05-2.83,1.11-5.83,1.67-8.99,1.67ZM468.12,649.75c4.98,0,8.75-1.68,11.31-5.05,2.56-3.37,3.84-7.94,3.84-13.74s-1.28-10.37-3.84-13.74c-2.56-3.37-6.33-5.05-11.31-5.05s-8.58,1.68-11.21,5.05c-2.63,3.37-3.94,7.94-3.94,13.74s1.3,10.37,3.89,13.74c2.59,3.37,6.35,5.05,11.26,5.05Z"/>
      <path class="cls-1" d="M506.7,644.47v-50.5h8.48v9.49c.2-.87.67-1.92,1.41-3.13.74-1.21,1.78-2.39,3.13-3.53,1.35-1.14,3.03-2.1,5.05-2.88,2.02-.77,4.44-1.16,7.27-1.16,3.3,0,6.21.71,8.74,2.12,2.53,1.41,4.53,3.5,6.01,6.26,1.48,2.76,2.22,6.16,2.22,10.2v33.13h-8.48v-31.92c0-4.38-1.04-7.49-3.13-9.34-2.09-1.85-4.81-2.78-8.18-2.78-3.1,0-5.69.73-7.78,2.17-2.09,1.45-3.65,3.43-4.7,5.96-1.04,2.53-1.57,5.4-1.57,8.64v27.27h-8.48Z"/>
      <path class="cls-1" d="M582.05,654.82c-3.64,0-7.07-.72-10.3-2.17-3.23-1.45-5.84-3.45-7.83-6.01-1.99-2.56-2.98-5.49-2.98-8.79h9.09c0,2.09.61,3.82,1.82,5.2,1.21,1.38,2.76,2.41,4.65,3.08,1.88.67,3.8,1.01,5.76,1.01,3.77,0,6.72-.61,8.84-1.82,2.12-1.21,3.18-3.06,3.18-5.55,0-2.02-.77-3.53-2.32-4.55-1.55-1.01-3.55-1.77-6.01-2.27-2.46-.51-5.05-.99-7.78-1.47-2.73-.47-5.32-1.18-7.78-2.12-2.46-.94-4.46-2.36-6.01-4.24-1.55-1.88-2.32-4.51-2.32-7.88,0-2.49.69-4.9,2.07-7.22,1.38-2.32,3.48-4.26,6.31-5.81,2.83-1.55,6.43-2.32,10.81-2.32,3.84,0,7.07.45,9.7,1.36,2.63.91,4.73,2.11,6.31,3.59,1.58,1.48,2.73,3.08,3.43,4.8.71,1.72,1.06,3.35,1.06,4.9h-8.69c0-1.68-.98-3.27-2.93-4.75-1.95-1.48-4.95-2.22-8.99-2.22-3.7,0-6.4.66-8.08,1.97-1.68,1.31-2.53,3.05-2.53,5.2,0,1.62.59,2.88,1.77,3.79,1.18.91,2.71,1.63,4.6,2.17,1.88.54,3.99,1.01,6.31,1.41,2.32.4,4.63.91,6.92,1.52,2.29.61,4.38,1.45,6.26,2.53,1.88,1.08,3.42,2.51,4.6,4.29,1.18,1.79,1.77,4.09,1.77,6.92s-.69,5.22-2.07,7.58c-1.38,2.36-3.59,4.26-6.62,5.71-3.03,1.45-7.04,2.17-12.02,2.17Z"/>
    </g>
  </g>
</svg>